<svg width="80" height="45" viewBox="0 0 80 45" fill="none" xmlns="http://www.w3.org/2000/svg">
<path fill-rule="evenodd" clip-rule="evenodd" d="M0 2.93478C0 1.31395 1.34315 0 3 0H77C78.6569 0 80 1.31395 80 2.93478C80 4.55562 78.6569 5.86957 77 5.86957H3C1.34315 5.86957 0 4.55562 0 2.93478Z" fill="white"/>
<path fill-rule="evenodd" clip-rule="evenodd" d="M0 22.5C0 20.8792 1.34315 19.5652 3 19.5652H77C78.6569 19.5652 80 20.8792 80 22.5C80 24.1209 78.6569 25.4348 77 25.4348H3C1.34315 25.4348 0 24.1209 0 22.5Z" fill="white"/>
<path fill-rule="evenodd" clip-rule="evenodd" d="M0 42.0652C0 40.4444 1.34315 39.1304 3 39.1304H77C78.6569 39.1304 80 40.4444 80 42.0652C80 43.6861 78.6569 45 77 45H3C1.34315 45 0 43.6861 0 42.0652Z" fill="white"/>
</svg>
