<svg width="31" height="41" viewBox="0 0 31 41" fill="none" xmlns="http://www.w3.org/2000/svg">
<path d="M24.9062 0.34375H6.09375C4.66869 0.345306 3.30244 0.912099 2.29477 1.91977C1.2871 2.92744 0.720306 4.29369 0.71875 5.71875V35.2812C0.720306 36.7063 1.2871 38.0726 2.29477 39.0802C3.30244 40.0879 4.66869 40.6547 6.09375 40.6562H24.9062C26.3313 40.6547 27.6976 40.0879 28.7052 39.0802C29.7129 38.0726 30.2797 36.7063 30.2812 35.2812V5.71875C30.2797 4.29369 29.7129 2.92744 28.7052 1.91977C27.6976 0.912099 26.3313 0.345306 24.9062 0.34375V0.34375ZM22.0071 22.8944C22.6429 23.5805 22.9536 24.5035 22.8797 25.4929C22.7344 27.4631 21.2319 29.0664 19.5312 29.0664C17.8306 29.0664 16.3256 27.4631 16.182 25.4929C16.1097 24.4935 16.4179 23.5688 17.0504 22.8894C17.6828 22.2099 18.557 21.8438 19.5312 21.8438C19.9943 21.8371 20.4537 21.9271 20.88 22.108C21.3063 22.2889 21.6902 22.5567 22.0071 22.8944V22.8944ZM10.125 5.71875C10.125 5.36237 10.2666 5.02058 10.5186 4.76858C10.7706 4.51657 11.1124 4.375 11.4688 4.375H19.5312C19.8876 4.375 20.2294 4.51657 20.4814 4.76858C20.7334 5.02058 20.875 5.36237 20.875 5.71875C20.875 6.07513 20.7334 6.41692 20.4814 6.66892C20.2294 6.92093 19.8876 7.0625 19.5312 7.0625H11.4688C11.1124 7.0625 10.7706 6.92093 10.5186 6.66892C10.2666 6.41692 10.125 6.07513 10.125 5.71875ZM25.998 36.2748C25.9013 36.3868 25.7811 36.4762 25.646 36.5367C25.5109 36.5972 25.3642 36.6274 25.2162 36.625H13.8463C13.6983 36.6274 13.5516 36.5972 13.4165 36.5367C13.2814 36.4762 13.1612 36.3868 13.0645 36.2748C12.9595 36.1491 12.8842 36.0014 12.8441 35.8426C12.8039 35.6839 12.8 35.5181 12.8327 35.3577C13.1056 33.8829 13.9564 32.6441 15.2934 31.7749C16.4809 31.0031 17.9859 30.5781 19.5312 30.5781C21.0766 30.5781 22.5816 31.0031 23.7691 31.7749C25.1061 32.6441 25.9569 33.8829 26.2298 35.3577C26.2625 35.5181 26.2586 35.6839 26.2184 35.8426C26.1783 36.0014 26.103 36.1491 25.998 36.2748V36.2748Z" fill="#564DBA"/>
</svg>
