<svg width="43" height="43" viewBox="0 0 43 43" fill="none" xmlns="http://www.w3.org/2000/svg">
<path d="M21.5 3.58337C14.5663 3.58337 8.95837 9.19129 8.95837 16.125C8.95837 25.5313 21.5 39.4167 21.5 39.4167C21.5 39.4167 34.0417 25.5313 34.0417 16.125C34.0417 9.19129 28.4338 3.58337 21.5 3.58337ZM21.5 20.6042C20.3121 20.6042 19.1728 20.1323 18.3328 19.2923C17.4928 18.4523 17.0209 17.313 17.0209 16.125C17.0209 14.9371 17.4928 13.7978 18.3328 12.9578C19.1728 12.1178 20.3121 11.6459 21.5 11.6459C22.688 11.6459 23.8273 12.1178 24.6673 12.9578C25.5073 13.7978 25.9792 14.9371 25.9792 16.125C25.9792 17.313 25.5073 18.4523 24.6673 19.2923C23.8273 20.1323 22.688 20.6042 21.5 20.6042Z" fill="#564DBA"/>
</svg>
