<svg width="64" height="64" viewBox="0 0 64 64" fill="none" xmlns="http://www.w3.org/2000/svg">
<circle cx="32" cy="32" r="32" fill="white"/>
<path fill-rule="evenodd" clip-rule="evenodd" d="M28.5556 20.1481C32.9738 20.1481 36.5556 23.7299 36.5556 28.1481C36.5556 32.5664 32.9738 36.1481 28.5556 36.1481C24.1373 36.1481 20.5556 32.5664 20.5556 28.1481C20.5556 23.7299 24.1373 20.1481 28.5556 20.1481ZM28.5556 16.5926C34.9375 16.5926 40.1111 21.7662 40.1111 28.1481C40.1111 30.2748 39.5366 32.2673 38.5344 33.9789L47.1143 42.5588C48.1557 43.6002 48.1557 45.2887 47.1143 46.33C46.0729 47.3714 44.3845 47.3714 43.3431 46.33L34.8522 37.8391C33.0408 39.0185 30.8782 39.7037 28.5556 39.7037C22.1736 39.7037 17 34.5301 17 28.1481C17 21.7662 22.1736 16.5926 28.5556 16.5926Z" fill="#463F97"/>
</svg>
