<svg width="43" height="43" viewBox="0 0 43 43" fill="none" xmlns="http://www.w3.org/2000/svg">
<path d="M42.3604 8.84549C40.8644 9.50841 39.2573 9.95633 37.5677 10.1588C39.311 9.11566 40.6152 7.47391 41.237 5.53987C39.5992 6.51273 37.8066 7.19751 35.9373 7.56445C34.6802 6.22225 33.0152 5.33262 31.2007 5.03368C29.3862 4.73473 27.5238 5.0432 25.9026 5.9112C24.2814 6.77919 22.9921 8.15814 22.2349 9.83396C21.4777 11.5098 21.295 13.3887 21.715 15.179C18.3963 15.0124 15.1497 14.1498 12.1859 12.6472C9.22215 11.1447 6.60742 9.0357 4.51146 6.4572C3.79479 7.69345 3.38271 9.12679 3.38271 10.6533C3.38191 12.0275 3.72032 13.3806 4.36791 14.5927C5.0155 15.8047 5.95225 16.8382 7.09504 17.6014C5.7697 17.5592 4.47361 17.2011 3.31462 16.5568V16.6643C3.31449 18.5917 3.98118 20.4598 5.20158 21.9515C6.42197 23.4433 8.1209 24.4669 10.0101 24.8487C8.78061 25.1814 7.4916 25.2304 6.24042 24.992C6.77343 26.6504 7.8117 28.1006 9.20987 29.1396C10.608 30.1786 12.2961 30.7543 14.0378 30.7862C11.0812 33.1072 7.42988 34.3662 3.67117 34.3606C3.00535 34.3608 2.34009 34.3219 1.67883 34.2442C5.49414 36.6973 9.93544 37.9992 14.4713 37.9941C29.8259 37.9941 38.2199 25.2769 38.2199 14.2474C38.2199 13.889 38.2109 13.5271 38.1948 13.1688C39.8275 11.988 41.2369 10.5259 42.3568 8.85087L42.3604 8.84549Z" fill="#564DBA"/>
</svg>
