<svg width="103" height="102" viewBox="0 0 103 102" fill="none" xmlns="http://www.w3.org/2000/svg">
<path d="M48.1792 9.21149C27.0321 9.21149 9.88733 26.3605 9.88733 47.5127C9.88733 60.4622 16.3126 71.9079 26.1468 78.8401C25.7716 77.2088 25.5754 75.5089 25.5754 73.7648C25.5754 61.2765 35.6965 51.153 48.1817 51.153C41.5283 51.153 36.1355 45.7588 36.1355 39.1038C36.1355 32.4488 41.5283 27.0547 48.1817 27.0547C54.8351 27.0547 60.2279 32.4488 60.2279 39.1038C60.2279 45.7588 54.8351 51.153 48.1817 51.153C60.6669 51.153 70.788 61.2765 70.788 73.7648C70.788 75.5113 70.5894 77.2088 70.2166 78.8401C80.0508 71.9079 86.4761 60.4622 86.4761 47.5127C86.4712 26.358 69.3288 9.21149 48.1792 9.21149Z" fill="white"/>
<path d="M100.739 88.904L86.5399 74.7011C92.2785 66.7337 95.3783 57.1964 95.3783 47.1833C95.3783 34.5748 90.4686 22.7194 81.5541 13.8028C63.1512 -4.59969 33.2098 -4.60215 14.8093 13.8028C5.89483 22.7194 0.985107 34.5748 0.985107 47.1833C0.985107 59.7917 5.89483 71.6471 14.8093 80.5638C24.0108 89.7675 36.0938 94.3693 48.1817 94.3693C57.8393 94.3693 67.4994 91.4257 75.6879 85.5459L89.8923 99.7537C92.8867 102.749 97.7449 102.749 100.739 99.7537C103.734 96.7585 103.734 91.8991 100.739 88.904ZM18.2746 77.0952C10.2871 69.1058 5.88747 58.4818 5.88747 47.1833C5.88747 35.8847 10.2871 25.2608 18.2746 17.2713C26.5196 9.0243 37.3494 4.9008 48.1793 4.9008C59.0091 4.9008 69.839 9.0243 78.084 17.2713C86.0714 25.2608 90.4711 35.8847 90.4711 47.1833C90.4711 58.4818 86.0714 69.1058 78.084 77.0952C61.594 93.5868 34.7646 93.5868 18.2746 77.0952Z" fill="white"/>
</svg>
